<svg width="56" height="56" viewBox="0 0 56 56" fill="none" xmlns="http://www.w3.org/2000/svg">
<path d="M13.2025 0H42.7975C50.0633 0 56 5.93671 56 13.2025V42.7975C56 50.0633 50.0633 56 42.7975 56H13.2025C5.93671 56 0 50.0633 0 42.7975V13.2025C0 5.93671 5.93671 0 13.2025 0Z" fill="url(#paint0_linear_7944_22207)"/>
<path d="M33.5824 45.9874L13.9115 40.5823C12.5824 40.2279 11.7849 38.8101 12.1394 37.481L19.228 11.7848C19.5824 10.4557 21.0001 9.65824 22.3293 10.0127L42.0001 15.4177C43.3293 15.7722 44.1267 17.1899 43.7723 18.519L36.6837 44.2152C36.3293 45.5443 34.9115 46.3418 33.5824 45.9874Z" fill="url(#paint1_linear_7944_22207)"/>
<path d="M34.1139 27.2912C34.4683 25.8735 33.5823 24.3672 32.1645 23.9241C31.8101 23.8355 31.6329 23.3925 31.7215 23.038L32.3418 21.0001C32.4304 20.8229 32.3418 20.6456 32.1645 20.557L31.7215 20.4684C31.5443 20.3798 31.3671 20.4684 31.2785 20.6456L30.6582 22.6836C30.5696 23.038 30.1266 23.2153 29.7721 23.1267L29.2405 22.9494C28.8861 22.8608 28.7088 22.4178 28.7975 22.0634L29.4177 20.0254C29.5063 19.8482 29.4177 19.671 29.2405 19.5824L28.8861 19.4937C28.7088 19.4051 28.5316 19.4937 28.443 19.671L27.8228 21.7089C27.7342 22.0634 27.2911 22.2406 26.9367 22.152L25.2532 21.6203C25.0759 21.5317 24.8987 21.6203 24.8101 21.7975L24.7215 22.2406C25.2532 22.6836 25.519 22.8608 25.6962 22.8608L26.5823 23.1267C26.9367 23.2153 27.1139 23.6583 27.0253 24.0127L24.8987 30.5697C24.8101 30.9241 24.3671 31.1013 24.0126 31.0127L22.3291 30.4811C22.1519 30.3925 21.9747 30.4811 21.8861 30.6583L21.7975 31.1013C21.7088 31.2786 21.7975 31.4558 21.9747 31.5444L23.6582 32.076C24.0126 32.1646 24.1899 32.6077 24.1013 32.9621L23.481 35.0001C23.3924 35.1773 23.481 35.3545 23.6582 35.4431L24.1013 35.5317C24.2785 35.6203 24.4557 35.5317 24.5443 35.3545L25.1645 33.3165C25.2532 32.9621 25.6962 32.7849 26.0506 32.8735L26.6709 33.0507C27.0253 33.1393 27.2025 33.5824 27.1139 33.9368L26.4937 35.9748C26.4051 36.152 26.4937 36.3292 26.6709 36.4178L27.1139 36.5064C27.2911 36.595 27.4683 36.5064 27.5569 36.3292L28.1772 34.2912C28.2658 33.9368 28.7088 33.7596 29.0633 33.8482L30.3924 34.2912C30.7468 34.3798 31.0126 34.4684 31.3671 34.4684C32.519 34.4684 33.5823 33.671 34.0253 32.5191C34.4683 31.2786 33.9367 29.9494 32.8734 29.2406C33.4937 28.7089 33.9367 28.0887 34.1139 27.2912ZM32.962 32.076C32.7848 32.5191 32.519 32.8735 32.0759 33.1393C31.6329 33.3165 31.1899 33.4051 30.6582 33.2279L25.6962 31.633L26.5823 28.8861C26.6709 28.5317 27.1139 28.3545 27.4683 28.4431L31.7215 29.8608C32.1645 30.0381 32.519 30.3039 32.7848 30.7469C33.0506 31.1013 33.0506 31.633 32.962 32.076ZM33.1392 27.0254C32.962 28.0887 31.8101 28.7089 30.8354 28.3545L27.8228 27.3798C27.4683 27.2912 27.2911 26.8482 27.3797 26.4937L28.0886 24.3672C28.1772 24.0127 28.6202 23.8355 28.9747 23.9241L31.8987 24.8988C32.7848 25.1646 33.3164 26.1393 33.1392 27.0254Z" fill="black" stroke="black" stroke-width="0.25" stroke-miterlimit="10"/>
<path opacity="0.55" d="M15.5952 41.0252L24.0129 10.4556" stroke="#858585" stroke-width="0.75" stroke-miterlimit="10"/>
<path d="M23.8354 10.3672L20.5569 22.3292C20.4683 22.595 20.7341 22.7723 21 22.6836L23.7468 21.2659C23.924 21.1773 24.1012 21.2659 24.1898 21.3545L25.7848 24.0128C25.962 24.2786 26.3164 24.19 26.3164 23.9242L29.5949 11.9621L23.8354 10.3672Z" fill="#9E84FF"/>
<defs>
<linearGradient id="paint0_linear_7944_22207" x1="20.3297" y1="20.3297" x2="59.9165" y2="59.9165" gradientUnits="userSpaceOnUse">
<stop stop-color="#5546FF"/>
<stop offset="0.3501" stop-color="#7D75DD"/>
<stop offset="0.7183" stop-color="#A3A0BE"/>
<stop offset="0.9057" stop-color="#B1B1B2"/>
</linearGradient>
<linearGradient id="paint1_linear_7944_22207" x1="24.6104" y1="17.2712" x2="36.1851" y2="53.9643" gradientUnits="userSpaceOnUse">
<stop stop-color="#EAEAEA"/>
<stop offset="0.3862" stop-color="#E5E5E6"/>
<stop offset="0.8305" stop-color="#D7D8DB"/>
<stop offset="1" stop-color="#D0D1D5"/>
</linearGradient>
</defs>
</svg>
